<?xml version="1.0" encoding="UTF-8"?>
<svg id="Layer_1" data-name="Layer 1" xmlns="http://www.w3.org/2000/svg" viewBox="0 0 836.97 1006">
  <defs>
    <style>
      .cls-1 {
        fill: #231f20;
        fill-rule: evenodd;
      }
    </style>
  </defs>
  <path class="cls-1" d="M832.99,0c2.29.58,3.61,2.24,3.98,4.97-12.41,125.64-24.68,251.3-36.8,376.98-25.94-22.63-52.47-44.52-79.57-65.65-11.1,14.9-21.71,30.16-31.83,45.75-66.66,113.47-138.28,223.54-214.85,330.23-43.1,59.03-95.16,108.43-156.16,148.2-50.16,30.78-104.54,44.04-163.12,39.79-64.63-10.92-110.05-46.4-136.27-106.43-27.97-77.81-23.99-154.07,11.94-228.77,41.05-85.48,105.7-145.49,193.96-180.03,10.35-3.92,20.96-5.91,31.83-5.97-81.52,52.51-132.91,126.45-154.17,221.81-7.73,36.34-5.74,72.15,5.97,107.42,24.45,52.59,63.91,68.18,118.36,46.75,33.93-15.34,63.44-36.89,88.52-64.65,41.21-49.93,79.01-102.31,113.39-157.16,56.86-90.52,114.22-180.7,172.08-270.55-24.23-15.77-49.43-30.02-75.59-42.77C627.56,133.24,730.34,66.59,832.99,0Z"/>
  <path class="cls-1" d="M763.36,507.28c26.34,151.4-15.43,281.04-125.33,388.91-126.43,111.62-269,138.14-427.7,79.57-35.22-15.6-67.04-36.16-95.49-61.67,177.08,63.88,338.21,36.02,483.41-83.55,76.77-72.93,128.82-160.79,156.16-263.59,4.07-19.75,7.05-39.65,8.95-59.68Z"/>
</svg>